<?xml version="1.0" encoding="UTF-8" standalone="no"?>
<svg
   xmlns:dc="http://purl.org/dc/elements/1.1/"
   xmlns:cc="http://creativecommons.org/ns#"
   xmlns:rdf="http://www.w3.org/1999/02/22-rdf-syntax-ns#"
   xmlns:svg="http://www.w3.org/2000/svg"
   xmlns="http://www.w3.org/2000/svg"
   viewBox="0 0 755.90533 755.90533"
   height="755.90533"
   width="755.90533"
   xml:space="preserve"
   id="svg2"
   version="1.1"><metadata
     id="metadata8"><rdf:RDF><cc:Work
         rdf:about=""><dc:format>image/svg+xml</dc:format><dc:type
           rdf:resource="http://purl.org/dc/dcmitype/StillImage" /></cc:Work></rdf:RDF></metadata><defs
     id="defs6"><clipPath
       id="clipPath18"
       clipPathUnits="userSpaceOnUse"><path
         id="path16"
         d="M 0,566.929 H 566.929 V 0 H 0 Z" /></clipPath></defs><g
     transform="matrix(1.3333333,0,0,-1.3333333,0,755.90533)"
     id="g10"><g
       id="g12"><g
         clip-path="url(#clipPath18)"
         id="g14"><g
           transform="translate(527.2441,283.4658)"
           id="g20"><path
             id="path22"
             style="fill:#ffffff;fill-opacity:1;fill-rule:nonzero;stroke:none"
             d="m 0,0 c 0,-134.637 -109.144,-243.781 -243.779,-243.781 -134.637,0 -243.781,109.144 -243.781,243.781 0,134.633 109.144,243.777 243.781,243.777 C -109.144,243.777 0,134.633 0,0" /></g><g
           transform="translate(152.3418,128.5947)"
           id="g24"><path
             id="path26"
             style="fill:#393536;fill-opacity:1;fill-rule:nonzero;stroke:none"
             d="m 0,0 c -3.449,-3.98 -4.086,-4.715 -4.758,-5.6 -0.72,-0.935 -0.844,-1.607 -0.381,-2.238 0.219,-0.33 0.537,-0.65 0.853,-0.924 0.262,-0.224 0.372,-0.414 0.19,-0.625 -0.135,-0.158 -0.389,-0.029 -0.808,0.33 -0.996,0.864 -2.578,2.371 -3.34,3.03 -0.653,0.568 -2.269,1.826 -3.264,2.695 -0.341,0.297 -0.504,0.531 -0.368,0.689 0.181,0.205 0.384,0.123 0.646,-0.101 0.262,-0.229 0.495,-0.383 0.854,-0.606 0.821,-0.478 1.415,-0.216 2.263,0.655 0.779,0.795 1.415,1.527 4.865,5.511 l 3.994,4.61 c 2.202,2.543 3.994,4.613 4.866,5.83 0.534,0.775 0.759,1.406 0.064,2.193 -0.322,0.371 -0.854,0.922 -1.246,1.264 -0.288,0.246 -0.351,0.439 -0.237,0.57 0.159,0.182 0.436,0.082 0.724,-0.168 1.729,-1.5 3.312,-3.008 4.021,-3.621 0.602,-0.521 2.321,-1.875 3.368,-2.781 0.34,-0.295 0.457,-0.533 0.299,-0.715 -0.115,-0.131 -0.288,-0.117 -0.601,0.154 -0.395,0.34 -0.754,0.559 -1.036,0.713 C 10.353,11.211 9.812,10.904 9.073,10.211 7.989,9.225 6.196,7.152 3.994,4.613 Z m -9.757,-10.947 c -0.568,-0.657 -1.736,-1.157 -2.784,-0.25 -0.839,0.728 -1.018,1.845 -0.268,2.711 0.748,0.867 1.965,1.052 2.855,0.277 1.049,-0.904 0.764,-2.084 0.197,-2.738" /></g><g
           transform="translate(138.6504,162.3369)"
           id="g28"><path
             id="path30"
             style="fill:#393536;fill-opacity:1;fill-rule:nonzero;stroke:none"
             d="M 0,0 C -2.325,2.664 -3.867,3.115 -5.017,2.848 -5.642,2.721 -6.248,2.465 -6.682,2.227 -6.99,2.051 -7.192,1.965 -7.329,2.121 -7.51,2.33 -7.373,2.543 -6.747,3.09 c 0.838,0.73 2.832,1.873 3.645,2.26 0.585,0.279 0.955,0.279 1.364,-0.192 3.807,-4.365 7.508,-8.873 12.114,-14.152 0.251,-0.287 0.311,-0.512 0.127,-0.672 -0.183,-0.162 -0.383,-0.195 -1.127,-0.291 -8.966,-1.33 -18.249,-2.617 -26.82,-3.924 l 4.469,-5.125 c 1.164,-1.334 2.633,-2.857 3.833,-3.285 1.223,-0.449 2.603,-0.078 3.271,0.367 0.411,0.268 0.606,0.254 0.744,0.096 0.16,-0.184 0.053,-0.322 -0.263,-0.596 -0.601,-0.523 -3.322,-2.207 -4.218,-2.762 -0.413,-0.265 -0.634,-0.275 -0.771,-0.119 -0.205,0.237 -0.185,0.53 -0.729,1.207 -2.062,2.575 -3.183,3.805 -4.117,4.877 l -6.955,7.973 c -0.228,0.262 -0.309,0.514 -0.178,0.629 0.156,0.137 0.404,0.168 0.679,0.223 9.002,1.501 18.453,2.748 27.289,3.964 z" /></g><g
           transform="translate(104.7402,167.3721)"
           id="g32"><path
             id="path34"
             style="fill:#393536;fill-opacity:1;fill-rule:nonzero;stroke:none"
             d="m 0,0 c -0.562,-0.203 -0.937,-0.18 -1.076,0.061 -0.137,0.24 -0.092,0.507 0.463,1.347 L 11.581,19.4 -10.287,17.65 c -0.619,-0.039 -0.946,-0.025 -1.102,0.245 -0.157,0.271 0.038,0.625 0.618,1.078 L 6.203,32.436 c 1.736,1.363 2.433,2.168 2.183,3.226 -0.235,1.027 -0.551,1.643 -0.777,2.035 -0.156,0.272 -0.247,0.496 -0.068,0.602 0.24,0.139 0.539,-0.17 0.782,-0.592 0.434,-0.75 2.74,-4.945 3.344,-6.197 0.341,-0.727 0.354,-0.957 0.174,-1.061 -0.151,-0.09 -0.31,-0.019 -0.521,0.139 -0.165,0.144 -0.606,0.008 -1.379,-0.596 l -12.169,-9.441 0.071,-0.121 17.416,1.336 c 1.81,0.129 2.168,0.134 2.323,-0.137 0.157,-0.27 -0.27,-0.918 -0.893,-1.92 C 15.726,18.191 12.502,13.16 11.871,12.313 11.396,11.68 8.655,7.691 7.012,5.34 l 0.069,-0.123 12.852,5.351 c 0.575,0.25 0.982,0.448 1.463,0.727 0.571,0.328 0.616,0.877 0.44,1.455 -0.192,0.611 -0.404,1.047 -0.58,1.348 -0.138,0.24 -0.198,0.486 -0.049,0.572 0.27,0.156 0.485,-0.08 0.747,-0.529 0.729,-1.26 1.42,-2.664 1.733,-3.207 0.33,-0.569 1.253,-1.957 1.809,-2.92 C 25.67,7.715 25.748,7.437 25.479,7.285 25.328,7.197 25.165,7.342 24.991,7.643 24.853,7.883 24.729,8.094 24.378,8.492 23.713,9.229 22.402,8.789 21.296,8.35 Z" /></g><g
           transform="translate(93.8428,211.21)"
           id="g36"><path
             id="path38"
             style="fill:#393536;fill-opacity:1;fill-rule:nonzero;stroke:none"
             d="m 0,0 c -4.946,-1.822 -5.857,-2.158 -6.876,-2.607 -1.081,-0.473 -1.515,-1 -1.414,-1.78 0.035,-0.392 0.158,-0.828 0.302,-1.217 0.12,-0.328 0.127,-0.544 -0.134,-0.638 -0.195,-0.074 -0.357,0.164 -0.547,0.683 -0.456,1.237 -1.114,3.327 -1.462,4.268 -0.3,0.812 -1.105,2.695 -1.56,3.934 -0.156,0.423 -0.186,0.705 0.008,0.779 0.261,0.096 0.398,-0.076 0.517,-0.401 0.122,-0.326 0.249,-0.576 0.458,-0.941 0.486,-0.82 1.136,-0.877 2.299,-0.521 1.066,0.316 1.977,0.652 6.922,2.476 l 5.728,2.111 c 3.156,1.165 5.729,2.11 7.08,2.754 0.842,0.422 1.344,0.866 1.116,1.891 -0.104,0.477 -0.303,1.219 -0.482,1.709 -0.132,0.357 -0.095,0.553 0.067,0.613 0.229,0.086 0.421,-0.138 0.555,-0.494 0.79,-2.148 1.447,-4.234 1.773,-5.113 C 14.624,6.756 15.478,4.74 15.958,3.439 16.113,3.016 16.1,2.752 15.871,2.668 15.709,2.609 15.563,2.703 15.42,3.094 15.24,3.582 15.03,3.947 14.857,4.217 14.486,4.82 13.862,4.811 12.883,4.561 11.456,4.219 8.886,3.273 5.729,2.109 Z m -13.838,-4.875 c -0.813,-0.301 -2.079,-0.176 -2.559,1.125 -0.382,1.041 0,2.107 1.075,2.502 1.074,0.398 2.226,-0.029 2.635,-1.133 0.48,-1.305 -0.335,-2.195 -1.151,-2.494" /></g><g
           transform="translate(88.3701,238.6924)"
           id="g40"><path
             id="path42"
             style="fill:#393536;fill-opacity:1;fill-rule:nonzero;stroke:none"
             d="m 0,0 c 0.373,0.08 0.494,0.178 0.547,0.434 0.088,0.765 -0.026,1.8 -0.203,2.65 -0.285,1.357 -0.515,1.77 -1.084,2.287 -0.96,0.861 -2.729,1.518 -5.511,0.934 -4.817,-1.016 -5.538,-4.498 -5.118,-6.502 0.18,-0.846 0.342,-1.449 0.515,-1.768 0.117,-0.223 0.269,-0.26 0.539,-0.205 z m -1.839,-4.566 c -5.157,-1.086 -6.106,-1.286 -7.178,-1.58 -1.139,-0.313 -1.625,-0.7 -1.627,-1.87 -0.011,-0.285 0.076,-0.867 0.177,-1.341 0.078,-0.375 0.054,-0.592 -0.185,-0.645 -0.238,-0.049 -0.355,0.174 -0.462,0.684 -0.379,1.797 -0.726,3.957 -0.876,4.668 -0.243,1.154 -0.886,3.709 -1.108,4.765 -0.451,2.137 -0.725,4.453 0.144,6.549 0.447,1.086 1.891,2.809 4.164,3.285 2.511,0.528 5.039,-0.037 8.542,-2.879 3.165,3.821 5.692,6.797 7.376,9.241 1.567,2.314 1.512,3.755 1.506,4.285 -0.009,0.388 -0.04,0.699 -0.097,0.97 -0.058,0.272 0.016,0.428 0.186,0.465 0.27,0.057 0.388,-0.166 0.474,-0.572 l 0.678,-3.225 c 0.399,-1.9 0.409,-2.783 0.121,-3.765 C 9.521,12.846 8.198,11.219 5.985,8.771 4.405,7.023 2.426,4.977 2.009,4.428 1.841,4.215 1.851,4.004 1.9,3.764 L 2.453,0.801 C 2.489,0.631 2.579,0.541 2.782,0.586 l 0.475,0.1 c 3.156,0.664 5.836,1.228 7.225,1.697 0.962,0.31 1.667,0.67 1.588,1.715 -0.04,0.523 -0.129,1.285 -0.215,1.693 -0.056,0.27 0.017,0.428 0.186,0.465 0.237,0.049 0.391,-0.168 0.483,-0.613 0.413,-1.967 0.839,-4.498 0.948,-5.006 0.135,-0.645 0.687,-2.76 0.972,-4.117 0.092,-0.442 0.04,-0.698 -0.197,-0.75 -0.169,-0.036 -0.301,0.076 -0.386,0.486 -0.106,0.508 -0.259,0.904 -0.391,1.193 -0.28,0.651 -1.061,0.664 -2.074,0.59 -1.46,-0.131 -4.142,-0.695 -7.263,-1.352 z" /></g><g
           transform="translate(87.9414,290.208)"
           id="g44"><path
             id="path46"
             style="fill:#393536;fill-opacity:1;fill-rule:nonzero;stroke:none"
             d="m 0,0 c -1.87,0.086 -2.65,-0.229 -3.673,-0.631 -0.566,-0.217 -8.397,-4.517 -10.251,-5.65 -1.322,-0.809 -2.226,-1.635 -2.637,-2.278 -0.263,-0.441 -0.497,-1.017 -0.516,-1.435 -0.012,-0.277 -0.092,-0.518 -0.334,-0.506 -0.208,0.008 -0.301,0.258 -0.282,0.672 0.027,0.625 0.247,3.217 0.298,4.361 0.033,0.731 -0.006,2.154 0.064,3.713 0.015,0.346 0.126,0.516 0.334,0.504 0.208,-0.01 0.231,-0.252 0.347,-0.777 0.054,-0.315 0.324,-0.5 0.602,-0.514 0.277,-0.012 0.7,0.141 1.197,0.361 1.062,0.44 9.627,4.916 10.622,5.428 -0.816,0.383 -8.242,5.088 -9.293,5.621 -0.748,0.381 -1.33,0.547 -1.781,0.569 -0.345,0.015 -0.733,-0.11 -0.897,-0.688 -0.084,-0.311 -0.168,-0.621 -0.376,-0.611 -0.242,0.013 -0.304,0.187 -0.284,0.607 0.05,1.145 0.205,2.246 0.251,3.25 0.033,0.766 0.032,3.057 0.061,3.711 0.016,0.379 0.096,0.621 0.305,0.609 0.242,-0.009 0.333,-0.293 0.316,-0.673 -0.014,-0.348 0.094,-1.012 0.347,-1.543 0.314,-0.743 0.713,-1.143 1.614,-1.946 1.335,-1.207 9.26,-6.42 10.721,-7.111 1.223,-0.576 2.298,-0.627 3.441,-0.674 L 3.037,4.238 C 3.591,4.215 5.045,4.15 6.505,4.187 7.513,4.213 8.288,4.492 8.475,5.523 8.565,6.004 8.668,6.766 8.689,7.25 8.708,7.631 8.82,7.799 8.993,7.791 9.235,7.781 9.326,7.498 9.307,7.051 9.207,4.867 9.007,2.691 8.966,1.752 8.925,0.889 8.932,-1.299 8.874,-2.582 8.853,-3.068 8.771,-3.342 8.493,-3.328 8.32,-3.324 8.226,-3.143 8.241,-2.762 8.264,-2.279 8.213,-1.859 8.158,-1.545 8.051,-0.844 7.303,-0.5 6.301,-0.383 4.85,-0.215 3.394,-0.15 2.84,-0.125 Z" /></g><g
           transform="translate(83.1475,316.9424)"
           id="g48"><path
             id="path50"
             style="fill:#393536;fill-opacity:1;fill-rule:nonzero;stroke:none"
             d="M 0,0 C -5.148,1.135 -6.097,1.346 -7.195,1.518 -8.361,1.703 -8.964,1.553 -9.447,0.486 -9.574,0.23 -9.736,-0.338 -9.84,-0.812 c -0.082,-0.374 -0.194,-0.561 -0.432,-0.508 -0.237,0.052 -0.252,0.302 -0.14,0.812 0.395,1.795 0.968,3.903 1.192,4.92 0.181,0.813 0.549,2.971 0.82,4.19 0.111,0.507 0.23,0.73 0.466,0.677 C -7.695,9.229 -7.673,9.01 -7.747,8.672 -7.828,8.297 -7.842,8.088 -7.861,7.666 -7.896,6.715 -7.379,6.316 -6.209,5.986 -5.14,5.682 -4.191,5.471 0.955,4.334 L 5.697,3.287 c 4.911,-1.084 7.195,-0.555 8.916,0.801 1.587,1.252 2.068,2.777 2.323,3.93 0.327,1.49 0.257,3.425 -0.798,5.078 -1.452,2.273 -4.477,3.047 -7.967,3.818 l -4.232,0.932 c -5.147,1.138 -6.095,1.345 -7.195,1.519 -1.167,0.186 -1.767,0.033 -2.251,-1.033 -0.129,-0.254 -0.289,-0.822 -0.372,-1.193 -0.082,-0.375 -0.195,-0.563 -0.432,-0.51 -0.237,0.051 -0.251,0.305 -0.146,0.775 0.38,1.725 0.952,3.834 0.959,3.869 0.09,0.407 0.46,2.561 0.751,3.889 0.105,0.477 0.225,0.695 0.462,0.645 0.238,-0.055 0.261,-0.272 0.171,-0.678 -0.083,-0.371 -0.094,-0.584 -0.116,-1.004 -0.032,-0.951 0.484,-1.35 1.653,-1.678 1.069,-0.308 2.017,-0.515 7.165,-1.652 l 3.624,-0.801 c 3.761,-0.83 7.674,-2.086 9.484,-5.467 1.535,-2.863 1.369,-5.381 0.883,-7.584 C 18.184,5.15 17.365,1.92 14.584,-0.059 12.645,-1.441 9.854,-2.174 4.943,-1.092 Z m -11.151,16.1 c -0.677,0.148 -1.489,0.826 -1.249,1.908 0.196,0.881 0.895,1.472 1.843,1.263 0.948,-0.21 1.551,-1.019 1.334,-2 -0.239,-1.082 -1.217,-1.33 -1.928,-1.171 m -1.578,-7.147 c -0.642,0.143 -1.453,0.817 -1.212,1.901 0.193,0.882 0.892,1.472 1.807,1.271 0.948,-0.209 1.551,-1.016 1.333,-2 -0.238,-1.082 -1.216,-1.33 -1.928,-1.172" /></g><g
           transform="translate(96.709,358.6201)"
           id="g52"><path
             id="path54"
             style="fill:#393536;fill-opacity:1;fill-rule:nonzero;stroke:none"
             d="m 0,0 0.067,0.162 c -0.721,1.586 -3.505,8.266 -4.199,9.649 -0.676,1.341 -1.177,2.38 -1.718,2.611 -0.351,0.15 -0.629,0.117 -0.829,-0.176 -0.185,-0.262 -0.304,-0.359 -0.495,-0.279 -0.223,0.094 -0.221,0.281 -0.071,0.629 0.284,0.672 1.123,2.386 1.488,3.248 0.42,0.988 1.068,2.785 1.486,3.783 0.137,0.316 0.294,0.516 0.518,0.418 0.225,-0.094 0.22,-0.281 0.085,-0.598 -0.19,-0.449 -0.4,-1.302 -0.434,-2.004 -0.035,-1.15 0.175,-2.519 0.937,-4.461 0.537,-1.398 3.285,-8.248 3.976,-9.82 1.989,0.516 11.376,3.92 13.086,4.666 1.936,0.838 3.98,1.666 5.381,3.106 0.788,0.796 1.157,1.396 1.318,1.777 0.095,0.223 0.24,0.389 0.431,0.307 0.223,-0.096 0.251,-0.293 -0.006,-0.901 L 19.845,9.338 C 19.439,8.381 19.197,7.807 18.85,7.162 17.958,5.506 16.891,4.941 15.097,4.08 13.255,3.201 3.215,0.033 2.005,-0.242 L 1.378,-0.391 1.311,-0.553 4.215,-1.783 c 2.939,-1.242 5.462,-2.311 6.876,-2.795 0.921,-0.317 1.745,-0.324 2.212,0.42 0.253,0.42 0.613,1.094 0.789,1.51 0.108,0.255 0.271,0.375 0.432,0.306 0.223,-0.094 0.21,-0.39 0.062,-0.744 -0.757,-1.791 -1.705,-3.76 -2.043,-4.559 -0.311,-0.734 -1.066,-2.783 -1.607,-4.064 -0.176,-0.412 -0.367,-0.596 -0.59,-0.502 -0.16,0.068 -0.201,0.236 -0.039,0.619 0.203,0.481 0.299,0.889 0.357,1.203 0.144,0.694 -0.491,1.151 -1.363,1.672 -1.274,0.727 -3.796,1.797 -6.734,3.039 l -5.621,2.379 c -4.855,2.057 -5.748,2.436 -6.798,2.803 -1.112,0.398 -1.73,0.357 -2.401,-0.602 -0.172,-0.228 -0.435,-0.757 -0.623,-1.207 -0.148,-0.349 -0.294,-0.513 -0.518,-0.418 -0.222,0.094 -0.192,0.344 0.01,0.823 0.717,1.693 1.665,3.662 1.99,4.431 0.325,0.766 1.08,2.817 1.54,3.905 0.189,0.445 0.347,0.644 0.571,0.548 C -9.06,6.889 -9.077,6.672 -9.184,6.414 -9.32,6.096 -9.37,5.889 -9.468,5.482 -9.673,4.551 -9.238,4.064 -8.148,3.527 -7.154,3.029 -6.259,2.654 -1.404,0.598 Z" /></g><g
           transform="translate(121.4287,377.0811)"
           id="g56"><path
             id="path58"
             style="fill:#393536;fill-opacity:1;fill-rule:nonzero;stroke:none"
             d="m 0,0 c -0.499,-0.342 -0.702,-0.34 -1.349,0.064 -1.616,1.012 -3.305,2.235 -3.758,2.557 -0.423,0.305 -0.691,0.596 -0.543,0.83 0.166,0.266 0.448,0.129 0.683,-0.017 0.381,-0.241 1.073,-0.508 1.665,-0.672 2.58,-0.717 4.458,0.523 5.598,2.343 1.656,2.647 0.672,5.063 -0.887,6.038 -1.439,0.898 -3.066,1.306 -6.504,0.062 l -1.904,-0.689 c -4.552,-1.655 -7.309,-1.481 -9.688,0.007 -3.235,2.024 -3.864,6.18 -1.308,10.266 1.196,1.91 2.262,2.961 2.946,3.596 0.225,0.228 0.404,0.318 0.61,0.191 0.382,-0.24 1.161,-0.89 3.454,-2.326 0.646,-0.406 0.827,-0.639 0.679,-0.873 -0.128,-0.207 -0.36,-0.186 -0.713,0.035 -0.264,0.166 -1.267,0.59 -2.419,0.451 -0.833,-0.092 -2.248,-0.39 -3.444,-2.302 -1.36,-2.174 -0.925,-4.29 0.838,-5.391 1.353,-0.848 2.805,-0.815 6.183,0.467 l 1.132,0.435 c 4.901,1.885 7.721,1.879 10.513,0.131 C 3.489,14.137 5.111,12.223 5.168,9.24 5.189,7.182 4.424,5.371 3.45,3.813 2.384,2.105 1.349,0.912 0,0" /></g><g
           transform="translate(125.3721,410.4795)"
           id="g60"><path
             id="path62"
             style="fill:#393536;fill-opacity:1;fill-rule:nonzero;stroke:none"
             d="M 0,0 C -4.018,3.414 -4.758,4.043 -5.648,4.709 -6.593,5.418 -7.194,5.566 -8.119,4.85 -8.353,4.682 -8.761,4.256 -9.075,3.887 -9.322,3.596 -9.51,3.48 -9.694,3.639 c -0.185,0.158 -0.081,0.386 0.256,0.785 0.606,0.713 1.283,1.457 1.844,2.117 0.61,0.664 1.154,1.25 1.467,1.621 0.718,0.848 5.185,6.106 5.583,6.631 0.375,0.547 0.682,1.014 0.809,1.269 0.085,0.157 0.14,0.383 0.253,0.514 0.113,0.131 0.241,0.07 0.373,-0.043 C 1.074,16.375 1.28,15.975 2.429,14.861 2.671,14.613 3.788,13.572 4.061,13.25 4.171,13.109 4.285,12.926 4.129,12.74 3.97,12.553 3.794,12.613 3.555,12.814 3.369,12.973 2.897,13.326 2.469,13.465 1.836,13.682 1.293,13.688 0.014,12.5 -0.421,12.098 -2.83,9.365 -3.279,8.838 -3.392,8.705 -3.357,8.584 -3.172,8.428 L 3.517,2.75 C 3.7,2.59 3.829,2.529 3.963,2.688 c 0.494,0.58 3.075,3.621 3.54,4.273 0.485,0.68 0.742,1.144 0.68,1.607 -0.055,0.362 -0.097,0.58 0.015,0.711 0.09,0.108 0.209,0.143 0.369,0.01 0.159,-0.139 0.492,-0.603 1.75,-1.853 0.506,-0.473 1.496,-1.452 1.682,-1.61 0.212,-0.176 0.5,-0.424 0.3,-0.662 C 12.142,4.977 11.991,5.016 11.858,5.129 11.572,5.324 11.228,5.617 10.816,5.83 10.177,6.146 9.466,6.111 8.529,5.225 8.05,4.768 5.801,2.172 5.263,1.537 5.15,1.406 5.234,1.291 5.393,1.156 l 2.088,-1.775 c 0.899,-0.762 3.308,-2.854 4.097,-3.479 1.868,-1.494 2.625,-1.41 4.913,1.285 0.584,0.69 1.528,1.801 1.793,2.756 0.268,0.957 -0.019,1.748 -0.945,2.852 -0.246,0.299 -0.308,0.443 -0.151,0.627 0.182,0.211 0.392,0.031 0.656,-0.192 0.608,-0.515 2.226,-2.253 2.643,-2.835 0.531,-0.768 0.327,-1.008 -0.526,-2.014 -1.683,-1.979 -2.97,-3.391 -3.962,-4.502 -1.018,-1.092 -1.739,-1.891 -2.412,-2.684 -0.248,-0.289 -0.741,-0.871 -1.254,-1.529 -0.516,-0.605 -1.047,-1.34 -1.495,-1.867 -0.292,-0.344 -0.529,-0.461 -0.715,-0.307 -0.131,0.113 -0.12,0.285 0.149,0.606 0.336,0.394 0.552,0.757 0.702,1.039 0.343,0.619 -0.127,1.244 -0.802,2.002 -0.998,1.076 -3.087,2.849 -5.52,4.914 z" /></g><g
           transform="translate(150.3584,434.3486)"
           id="g64"><path
             id="path66"
             style="fill:#393536;fill-opacity:1;fill-rule:nonzero;stroke:none"
             d="M 0,0 0.132,0.115 C 0.198,1.855 0.7,9.072 0.7,10.623 c -0.002,1.498 0.017,2.652 -0.365,3.104 -0.248,0.291 -0.511,0.38 -0.82,0.209 -0.284,-0.147 -0.433,-0.184 -0.569,-0.026 -0.156,0.186 -0.068,0.35 0.222,0.588 0.553,0.473 2.072,1.631 2.784,2.238 0.819,0.698 2.204,2.014 3.021,2.717 0.264,0.225 0.494,0.328 0.651,0.147 C 5.782,19.414 5.693,19.25 5.43,19.023 5.061,18.709 4.492,18.039 4.147,17.43 3.599,16.418 3.175,15.098 2.983,13.023 2.839,11.533 2.229,4.178 2.141,2.463 4.147,2.033 14.064,0.871 15.926,0.773 c 2.106,-0.121 4.305,-0.296 6.203,0.362 1.061,0.359 1.657,0.73 1.974,1 0.183,0.156 0.387,0.238 0.522,0.08 C 24.781,2.033 24.718,1.84 24.217,1.412 L 21.92,-0.545 C 21.129,-1.219 20.653,-1.621 20.054,-2.041 18.518,-3.125 17.311,-3.15 15.32,-3.115 13.281,-3.076 2.889,-1.408 1.682,-1.113 L 1.055,-0.967 0.922,-1.08 2.968,-3.482 c 2.07,-2.426 3.846,-4.512 4.892,-5.579 0.683,-0.695 1.414,-1.072 2.164,-0.615 0.414,0.262 1.04,0.703 1.383,0.994 0.21,0.18 0.41,0.215 0.524,0.08 0.157,-0.181 0.013,-0.441 -0.278,-0.689 -1.477,-1.26 -3.207,-2.598 -3.867,-3.158 -0.607,-0.52 -2.201,-2.014 -3.258,-2.914 -0.343,-0.293 -0.595,-0.371 -0.752,-0.186 -0.113,0.131 -0.076,0.301 0.241,0.57 0.398,0.338 0.669,0.663 0.861,0.916 0.437,0.557 0.076,1.25 -0.472,2.106 -0.812,1.219 -2.589,3.305 -4.658,5.734 l -3.957,4.645 c -3.418,4.012 -4.047,4.752 -4.82,5.549 -0.818,0.851 -1.389,1.093 -2.416,0.539 -0.256,-0.129 -0.729,-0.485 -1.097,-0.799 -0.291,-0.248 -0.494,-0.332 -0.651,-0.147 -0.159,0.186 -0.017,0.397 0.379,0.727 1.398,1.191 3.127,2.529 3.761,3.068 0.633,0.537 2.23,2.036 3.125,2.809 0.37,0.314 0.601,0.416 0.758,0.234 0.157,-0.185 0.043,-0.373 -0.167,-0.552 -0.265,-0.225 -0.399,-0.389 -0.672,-0.707 -0.6,-0.741 -0.429,-1.37 0.306,-2.34 0.666,-0.889 1.296,-1.627 4.714,-5.637 z" /></g><g
           transform="translate(190.4795,472.7119)"
           id="g68"><path
             id="path70"
             style="fill:#393536;fill-opacity:1;fill-rule:nonzero;stroke:none"
             d="m 0,0 -4.599,-2.363 c -1.784,-0.932 -2.458,-1.448 -2.596,-2.362 -0.087,-0.619 -0.064,-1.068 -0.006,-1.349 0.057,-0.28 0.023,-0.449 -0.165,-0.541 -0.219,-0.104 -0.355,0.019 -0.521,0.363 -0.24,0.502 -1.011,3.635 -1.069,3.914 -0.103,0.447 -0.099,0.686 0.089,0.774 0.25,0.119 0.713,-0.043 1.524,0.271 0.952,0.342 2.17,0.85 3.203,1.344 L 8.238,5.994 c 1.001,0.483 1.645,0.908 2.082,1.193 0.425,0.319 0.646,0.5 0.77,0.563 0.22,0.102 0.34,-0.07 0.566,-0.537 0.316,-0.656 1.257,-2.859 1.647,-3.672 0.12,-0.33 0.147,-0.545 -0.04,-0.637 -0.25,-0.117 -0.39,0.01 -0.646,0.459 L 12.42,3.695 C 11.969,4.477 10.705,4.947 7.892,3.674 L 3.907,1.875 10.063,-10.941 c 1.38,-2.879 2.567,-5.346 3.37,-6.616 0.511,-0.828 1.031,-1.427 2.028,-1.103 0.469,0.148 1.186,0.418 1.654,0.64 0.345,0.166 0.545,0.147 0.621,-0.009 0.105,-0.219 -0.1,-0.434 -0.445,-0.598 -2.062,-0.992 -4.076,-1.844 -4.952,-2.264 -0.72,-0.343 -2.645,-1.382 -3.894,-1.986 -0.407,-0.193 -0.671,-0.205 -0.775,0.014 -0.075,0.156 0.005,0.308 0.38,0.49 0.469,0.225 0.813,0.467 1.065,0.666 0.565,0.424 0.423,1.203 0.081,2.154 -0.474,1.391 -1.66,3.86 -3.042,6.735 z" /></g><g
           transform="translate(220.3545,476.1943)"
           id="g72"><path
             id="path74"
             style="fill:#393536;fill-opacity:1;fill-rule:nonzero;stroke:none"
             d="M 0,0 C -1.506,5.053 -1.782,5.982 -2.167,7.027 -2.572,8.139 -2.995,8.588 -4.161,8.496 -4.447,8.482 -5.022,8.348 -5.487,8.207 -5.854,8.1 -6.072,8.105 -6.141,8.34 c -0.07,0.23 0.143,0.367 0.641,0.515 0.897,0.268 1.871,0.524 2.703,0.772 0.873,0.223 1.648,0.42 2.113,0.557 1.064,0.316 7.678,2.289 8.299,2.509 0.613,0.256 1.124,0.481 1.37,0.625 0.158,0.084 0.327,0.245 0.492,0.293 0.167,0.049 0.239,-0.074 0.289,-0.238 0.068,-0.234 0.021,-0.682 0.379,-2.242 C 10.21,10.789 10.579,9.307 10.633,8.887 10.647,8.713 10.641,8.492 10.408,8.426 10.176,8.355 10.06,8.502 9.971,8.803 9.901,9.033 9.699,9.588 9.414,9.938 9.003,10.469 8.552,10.766 6.83,10.471 6.246,10.369 2.737,9.395 2.071,9.197 1.905,9.146 1.869,9.027 1.938,8.795 L 4.445,0.385 C 4.516,0.152 4.588,0.029 4.788,0.088 c 0.73,0.217 4.552,1.359 5.297,1.654 0.778,0.303 1.246,0.553 1.445,0.973 0.156,0.336 0.24,0.543 0.404,0.592 0.133,0.039 0.254,0.002 0.313,-0.198 0.059,-0.199 0.085,-0.771 0.456,-2.507 0.166,-0.672 0.463,-2.032 0.532,-2.266 0.079,-0.266 0.188,-0.631 -0.111,-0.721 -0.232,-0.068 -0.338,0.043 -0.388,0.211 -0.132,0.322 -0.261,0.754 -0.489,1.158 C 11.882,-0.4 11.269,-0.043 9.999,-0.277 9.347,-0.398 6.048,-1.348 5.25,-1.582 5.083,-1.635 5.09,-1.775 5.149,-1.975 L 5.932,-4.6 c 0.338,-1.13 1.214,-4.199 1.536,-5.152 0.752,-2.273 1.43,-2.613 4.821,-1.603 0.864,0.257 2.26,0.675 3.006,1.332 0.745,0.654 0.934,1.472 0.762,2.904 -0.042,0.387 -0.016,0.537 0.217,0.607 0.266,0.082 0.344,-0.185 0.443,-0.519 0.228,-0.762 0.636,-3.104 0.669,-3.815 0.024,-0.937 -0.274,-1.025 -1.537,-1.4 -2.493,-0.744 -4.341,-1.225 -5.781,-1.615 -1.449,-0.362 -2.489,-0.635 -3.485,-0.932 -0.366,-0.109 -1.097,-0.326 -1.885,-0.598 -0.765,-0.228 -1.608,-0.55 -2.273,-0.75 -0.432,-0.129 -0.696,-0.099 -0.764,0.135 -0.05,0.166 0.054,0.303 0.453,0.424 0.497,0.148 0.875,0.334 1.156,0.488 0.626,0.332 0.573,1.112 0.419,2.117 -0.25,1.446 -1.033,4.071 -1.944,7.129 z" /></g><g
           transform="translate(254.3145,482.5439)"
           id="g76"><path
             id="path78"
             style="fill:#393536;fill-opacity:1;fill-rule:nonzero;stroke:none"
             d="m 0,0 0.172,0.023 c 1.006,1.422 5.37,7.19 6.219,8.487 0.816,1.258 1.463,2.215 1.387,2.801 -0.048,0.378 -0.216,0.601 -0.569,0.625 -0.317,0.031 -0.465,0.08 -0.491,0.289 -0.031,0.238 0.133,0.33 0.511,0.377 0.721,0.093 2.626,0.232 3.555,0.351 1.066,0.137 2.945,0.483 4.011,0.619 0.344,0.043 0.594,0.006 0.624,-0.232 C 15.45,13.098 15.286,13.006 14.941,12.963 14.462,12.902 13.618,12.654 12.996,12.328 11.982,11.779 10.906,10.908 9.613,9.273 8.681,8.104 4.147,2.279 3.138,0.891 c 1.444,-1.457 9.116,-7.848 10.62,-8.95 1.697,-1.25 3.443,-2.599 5.393,-3.082 1.086,-0.283 1.786,-0.298 2.2,-0.246 0.24,0.033 0.455,-0.009 0.482,-0.213 0.031,-0.244 -0.128,-0.369 -0.782,-0.453 l -2.99,-0.383 c -1.033,-0.132 -1.652,-0.212 -2.383,-0.234 -1.879,-0.068 -2.906,0.57 -4.551,1.688 -1.687,1.146 -9.48,8.222 -10.33,9.128 L 0.353,-1.385 0.18,-1.41 0.582,-4.539 c 0.406,-3.166 0.755,-5.883 1.048,-7.348 0.191,-0.953 0.599,-1.672 1.474,-1.697 0.491,-0.006 1.256,0.021 1.704,0.078 0.275,0.035 0.461,-0.047 0.483,-0.219 0.03,-0.238 -0.231,-0.379 -0.61,-0.425 -1.926,-0.248 -4.106,-0.424 -4.965,-0.534 -0.792,-0.101 -2.945,-0.48 -4.321,-0.658 -0.446,-0.056 -0.701,0.016 -0.731,0.254 -0.023,0.174 0.102,0.295 0.515,0.348 0.515,0.064 0.92,0.187 1.22,0.295 0.67,0.226 0.745,1.006 0.754,2.019 -0.013,1.469 -0.362,4.184 -0.766,7.348 L -4.39,0.977 c -0.67,5.226 -0.794,6.189 -1.003,7.281 -0.219,1.16 -0.565,1.676 -1.73,1.771 -0.284,0.032 -0.875,-0.006 -1.355,-0.068 -0.377,-0.049 -0.593,-0.006 -0.624,0.234 -0.032,0.239 0.202,0.342 0.717,0.405 1.822,0.234 4.002,0.41 4.828,0.513 0.827,0.11 2.979,0.487 4.148,0.641 0.48,0.059 0.73,0.019 0.762,-0.219 0.03,-0.242 -0.167,-0.334 -0.442,-0.369 -0.344,-0.047 -0.546,-0.105 -0.949,-0.23 -0.907,-0.29 -1.108,-0.911 -1.023,-2.122 0.074,-1.111 0.197,-2.074 0.867,-7.3 z" /></g><g
           transform="translate(286.5186,474.8643)"
           id="g80"><path
             id="path82"
             style="fill:#393536;fill-opacity:1;fill-rule:nonzero;stroke:none"
             d="M 0,0 C -0.097,-2.701 0.298,-3.629 0.976,-3.914 1.55,-4.158 2.206,-4.234 2.76,-4.264 3.14,-4.289 3.344,-4.373 3.331,-4.58 3.313,-4.857 2.999,-4.906 2.514,-4.879 c -2.249,0.141 -3.627,0.328 -4.284,0.369 -0.312,0.02 -1.945,0.018 -3.744,0.127 -0.448,0.026 -0.76,0.08 -0.739,0.391 0.012,0.209 0.225,0.263 0.57,0.242 0.451,-0.025 1.075,-0.027 1.567,0.078 0.917,0.221 1.117,1.219 1.337,4.227 l 1.567,20.465 c 0.041,0.689 0.174,1.167 0.522,1.146 0.379,-0.021 0.663,-0.492 1.213,-1.15 0.388,-0.475 5.301,-6.438 10.046,-11.764 2.208,-2.498 6.575,-7.766 7.129,-8.357 l 0.174,-0.008 0.606,15.554 c 0.093,2.114 -0.177,2.791 -0.987,3.188 -0.507,0.24 -1.337,0.291 -1.82,0.32 -0.416,0.026 -0.548,0.137 -0.535,0.344 0.017,0.277 0.4,0.291 0.919,0.262 1.799,-0.112 3.453,-0.319 4.18,-0.362 0.38,-0.023 1.702,0 3.397,-0.107 0.451,-0.025 0.795,-0.084 0.777,-0.359 -0.013,-0.207 -0.227,-0.299 -0.642,-0.274 -0.346,0.02 -0.622,0.035 -1.044,-0.041 -0.986,-0.217 -1.309,-0.926 -1.461,-2.863 L 19.543,-5.258 c -0.046,-0.765 -0.204,-1.066 -0.515,-1.047 -0.382,0.026 -0.772,0.43 -1.13,0.834 -2.053,2.207 -6.204,7.014 -9.583,10.797 -3.544,3.971 -7.12,8.528 -7.702,9.225 l -0.104,0.006 z" /></g><g
           transform="translate(344.5039,473.1143)"
           id="g84"><path
             id="path86"
             style="fill:#393536;fill-opacity:1;fill-rule:nonzero;stroke:none"
             d="m 0,0 c 2.026,7.496 -1.033,13.316 -6.521,14.801 -3.849,1.039 -8.812,0.082 -11.067,-8.248 -1.882,-6.963 0.473,-13.528 6.9,-15.266 C -8.345,-9.344 -2.615,-9.672 0,0 m -22.486,6.762 c 1.548,5.724 7.33,12.095 17.369,9.381 8.334,-2.25 12.209,-8.508 10.138,-16.172 -2.073,-7.662 -9.066,-12.274 -17.567,-9.975 -9.606,2.598 -11.542,10.844 -9.94,16.766" /></g><g
           transform="translate(366.168,461.8486)"
           id="g88"><path
             id="path90"
             style="fill:#393536;fill-opacity:1;fill-rule:nonzero;stroke:none"
             d="m 0,0 c -1.879,-4.02 -2.893,-6.189 -2.495,-7.062 0.312,-0.721 1.025,-1.319 3.477,-2.465 1.664,-0.78 2.904,-1.321 4.085,-0.838 0.569,0.23 1.356,0.935 1.697,1.502 0.164,0.269 0.315,0.427 0.566,0.308 0.221,-0.101 0.179,-0.273 0.002,-0.65 -0.161,-0.346 -1.481,-2.598 -2.159,-3.391 -0.511,-0.603 -0.741,-0.687 -2.374,0.075 -2.262,1.056 -3.866,1.884 -5.265,2.574 -1.384,0.724 -2.501,1.285 -3.788,1.884 -0.346,0.163 -1.036,0.487 -1.805,0.807 -0.722,0.338 -1.569,0.654 -2.197,0.947 -0.408,0.192 -0.585,0.391 -0.48,0.612 0.072,0.156 0.242,0.191 0.617,0.015 0.473,-0.218 0.879,-0.332 1.191,-0.402 0.687,-0.168 1.167,0.447 1.719,1.301 0.772,1.246 1.932,3.726 3.281,6.617 l 2.584,5.527 c 2.231,4.776 2.642,5.655 3.049,6.69 0.437,1.095 0.419,1.717 -0.515,2.422 -0.221,0.179 -0.583,0.384 -0.991,0.576 -0.345,0.162 -0.506,0.314 -0.402,0.535 0.101,0.219 0.351,0.182 0.822,-0.049 1.477,-0.687 3.412,-1.709 4.26,-2.103 C 5.633,15.08 7.97,14.102 9.194,13.537 9.635,13.33 9.825,13.166 9.721,12.945 9.619,12.725 9.402,12.75 9.024,12.926 8.679,13.088 8.162,13.293 7.756,13.406 6.834,13.645 6.333,13.229 5.756,12.158 5.225,11.18 4.813,10.301 2.582,5.529 Z" /></g><g
           transform="translate(405.0176,441.3037)"
           id="g92"><path
             id="path94"
             style="fill:#393536;fill-opacity:1;fill-rule:nonzero;stroke:none"
             d="m 0,0 c 4.451,6.367 3.544,12.883 -1.119,16.137 -3.27,2.285 -8.264,3.07 -13.21,-4.012 C -18.46,6.213 -18.468,-0.762 -13.01,-4.576 -11.02,-5.965 -5.738,-8.217 0,0 m -18.867,13.988 c 3.395,4.862 10.998,8.899 19.526,2.94 C 7.738,11.982 9.265,4.781 4.716,-1.729 0.167,-8.238 -7.976,-10.205 -15.197,-5.16 c -8.159,5.699 -7.186,14.113 -3.67,19.148" /></g><g
           transform="translate(422.6768,430.8174)"
           id="g96"><path
             id="path98"
             style="fill:#393536;fill-opacity:1;fill-rule:nonzero;stroke:none"
             d="M 0,0 C 3.647,3.805 4.319,4.504 5.037,5.354 5.804,6.252 5.987,6.844 5.329,7.812 5.177,8.055 4.775,8.486 4.426,8.822 4.15,9.084 4.048,9.279 4.215,9.455 4.385,9.631 4.607,9.514 4.982,9.152 6.309,7.881 7.813,6.293 8.464,5.67 9.064,5.094 10.713,3.656 11.69,2.721 12.039,2.385 12.167,2.168 11.999,1.99 11.831,1.816 11.634,1.91 11.333,2.199 11.058,2.463 10.884,2.582 10.534,2.82 9.739,3.342 9.132,3.107 8.241,2.279 7.424,1.527 6.752,0.826 3.104,-2.977 l -4.44,-4.63 c -1.032,-1.079 -2.108,-2.348 -3.309,-3.602 -1.368,-1.426 -3.004,-2.932 -4.849,-3.854 -1.988,-1.021 -4.971,-1.478 -8.789,-0.65 -0.518,0.109 -1.111,0.297 -1.876,0.549 -0.272,0.068 -0.519,0.213 -0.644,0.33 -0.1,0.098 -0.129,0.266 -0.009,0.393 0.121,0.127 0.341,0.105 0.983,-0.079 0.493,-0.136 1.134,-0.22 2.113,-0.199 3.75,0.104 6.125,2.629 10.829,7.533 z" /></g><g
           transform="translate(449.5537,423.7275)"
           id="g100"><path
             id="path102"
             style="fill:#393536;fill-opacity:1;fill-rule:nonzero;stroke:none"
             d="M 0,0 C 0.667,0.553 1.901,0.857 2.788,-0.211 3.495,-1.062 3.49,-2.193 2.608,-2.926 1.729,-3.656 0.5,-3.645 -0.252,-2.734 -1.14,-1.668 -0.666,-0.555 0,0 m -11.412,-9.211 c 4.053,3.367 4.8,3.988 5.608,4.748 0.864,0.807 1.095,1.449 0.742,2.149 -0.165,0.359 -0.425,0.726 -0.692,1.046 -0.222,0.27 -0.301,0.471 -0.089,0.649 0.16,0.133 0.392,-0.035 0.746,-0.463 0.841,-1.014 2.158,-2.76 2.799,-3.535 0.554,-0.666 1.941,-2.174 2.783,-3.184 0.288,-0.345 0.411,-0.603 0.252,-0.738 -0.213,-0.176 -0.399,-0.059 -0.622,0.207 -0.22,0.266 -0.424,0.457 -0.744,0.734 -0.73,0.606 -1.361,0.446 -2.339,-0.277 -0.897,-0.656 -1.644,-1.277 -5.697,-4.643 l -4.692,-3.898 c -2.587,-2.15 -4.695,-3.896 -5.752,-4.959 -0.655,-0.678 -0.978,-1.264 -0.421,-2.15 0.257,-0.418 0.691,-1.051 1.023,-1.452 0.244,-0.293 0.275,-0.492 0.141,-0.601 -0.187,-0.156 -0.444,-0.008 -0.686,0.281 -1.463,1.758 -2.778,3.508 -3.376,4.227 -0.511,0.615 -1.986,2.23 -2.872,3.297 -0.288,0.347 -0.362,0.599 -0.176,0.753 0.133,0.112 0.301,0.073 0.567,-0.248 0.332,-0.4 0.652,-0.677 0.905,-0.871 0.549,-0.447 1.135,-0.228 1.975,0.332 1.231,0.799 3.338,2.549 5.925,4.696 z" /></g><g
           transform="translate(461.9648,379.8115)"
           id="g104"><path
             id="path106"
             style="fill:#393536;fill-opacity:1;fill-rule:nonzero;stroke:none"
             d="M 0,0 C 4.697,2.391 5.563,2.828 6.52,3.393 7.538,3.988 7.908,4.49 7.607,5.617 7.541,5.895 7.308,6.437 7.086,6.869 6.914,7.209 6.881,7.426 7.098,7.537 7.312,7.646 7.485,7.463 7.722,6.998 8.146,6.164 8.57,5.252 8.963,4.479 9.341,3.658 9.671,2.934 9.889,2.5 c 0.504,-0.988 3.63,-7.141 3.957,-7.711 0.362,-0.555 0.675,-1.018 0.861,-1.234 0.11,-0.141 0.297,-0.278 0.376,-0.434 0.079,-0.154 -0.03,-0.246 -0.184,-0.326 -0.215,-0.109 -0.665,-0.141 -2.134,-0.774 -0.325,-0.125 -1.717,-0.755 -2.119,-0.88 -0.17,-0.049 -0.386,-0.082 -0.497,0.136 -0.11,0.215 0.014,0.356 0.292,0.496 0.216,0.112 0.726,0.411 1.018,0.754 0.446,0.498 0.66,0.994 0.062,2.633 -0.207,0.561 -1.793,3.836 -2.108,4.455 -0.078,0.153 -0.203,0.168 -0.419,0.059 L 1.175,-4.301 C 0.958,-4.412 0.851,-4.504 0.945,-4.687 1.289,-5.369 3.097,-8.924 3.52,-9.604 c 0.439,-0.709 0.767,-1.126 1.216,-1.248 0.358,-0.091 0.576,-0.134 0.655,-0.289 0.062,-0.125 0.047,-0.248 -0.138,-0.341 -0.186,-0.098 -0.743,-0.223 -2.381,-0.901 -0.635,-0.285 -1.918,-0.82 -2.134,-0.926 -0.249,-0.129 -0.589,-0.302 -0.728,-0.023 -0.111,0.217 -0.02,0.342 0.134,0.42 0.295,0.187 0.698,0.392 1.052,0.687 0.539,0.471 0.783,1.137 0.324,2.344 -0.235,0.621 -1.759,3.695 -2.137,4.438 -0.078,0.152 -0.217,0.123 -0.403,0.027 l -2.443,-1.24 c -1.049,-0.535 -3.907,-1.948 -4.789,-2.434 -2.101,-1.146 -2.312,-1.877 -0.711,-5.029 0.409,-0.803 1.068,-2.102 1.848,-2.717 0.778,-0.615 1.616,-0.656 2.993,-0.228 0.372,0.113 0.526,0.113 0.636,-0.106 0.126,-0.244 -0.122,-0.373 -0.431,-0.529 -0.709,-0.36 -2.937,-1.182 -3.633,-1.34 -0.914,-0.191 -1.055,0.086 -1.653,1.26 -1.177,2.318 -1.98,4.05 -2.623,5.394 -0.614,1.36 -1.07,2.334 -1.542,3.262 -0.173,0.338 -0.518,1.019 -0.925,1.748 -0.362,0.709 -0.832,1.48 -1.146,2.098 -0.205,0.402 -0.221,0.666 -0.004,0.777 0.154,0.078 0.308,0.002 0.498,-0.371 0.235,-0.463 0.485,-0.803 0.688,-1.047 0.438,-0.557 1.197,-0.367 2.155,-0.033 1.378,0.506 3.818,1.744 6.663,3.189 z" /></g><g
           transform="translate(464.2832,346.751)"
           id="g108"><path
             id="path110"
             style="fill:#393536;fill-opacity:1;fill-rule:nonzero;stroke:none"
             d="m 0,0 c -2.57,-0.842 -3.306,-1.531 -3.34,-2.266 -0.029,-0.627 0.127,-1.265 0.287,-1.798 0.109,-0.364 0.102,-0.582 -0.096,-0.645 -0.267,-0.078 -0.423,0.201 -0.563,0.666 -0.646,2.158 -0.944,3.516 -1.134,4.148 -0.091,0.297 -0.657,1.831 -1.175,3.557 -0.128,0.434 -0.185,0.742 0.114,0.83 0.199,0.061 0.325,-0.117 0.425,-0.451 0.129,-0.432 0.342,-1.021 0.614,-1.445 0.524,-0.785 1.527,-0.625 4.427,0.203 l 19.753,5.594 c 0.664,0.199 1.16,0.24 1.259,-0.094 C 20.68,7.936 20.339,7.506 19.91,6.762 19.597,6.234 15.696,-0.436 12.333,-6.73 10.75,-9.664 7.31,-15.582 6.948,-16.305 l 0.05,-0.168 14.814,4.805 c 2.016,0.639 2.558,1.125 2.652,2.023 0.048,0.559 -0.19,1.354 -0.328,1.819 -0.119,0.4 -0.06,0.562 0.139,0.621 0.266,0.08 0.41,-0.274 0.559,-0.774 0.517,-1.728 0.895,-3.351 1.103,-4.048 0.11,-0.368 0.588,-1.598 1.077,-3.227 0.129,-0.43 0.194,-0.771 -0.073,-0.851 -0.198,-0.063 -0.356,0.109 -0.476,0.507 -0.1,0.332 -0.18,0.598 -0.4,0.967 -0.544,0.85 -1.32,0.906 -3.191,0.381 L 1.805,-20.162 c -0.731,-0.219 -1.069,-0.178 -1.158,0.123 -0.11,0.363 0.136,0.871 0.393,1.348 1.365,2.689 4.442,8.246 6.829,12.724 2.502,4.696 5.549,9.627 6.002,10.416 l -0.03,0.098 z" /></g><g
           transform="translate(468.5049,311.6631)"
           id="g112"><path
             id="path114"
             style="fill:#393536;fill-opacity:1;fill-rule:nonzero;stroke:none"
             d="M 0,0 C 0.177,0.58 0.337,0.705 1.094,0.793 2.988,1.016 5.07,1.121 5.625,1.15 6.146,1.178 6.537,1.117 6.569,0.844 6.605,0.531 6.3,0.463 6.024,0.43 5.577,0.377 4.87,0.152 4.305,-0.086 1.847,-1.145 1.155,-3.287 1.405,-5.42 c 0.366,-3.1 2.645,-4.367 4.47,-4.152 1.687,0.199 3.21,0.902 5.111,4.021 l 1.054,1.733 c 2.516,4.134 4.772,5.726 7.562,6.054 3.788,0.446 6.88,-2.4 7.444,-7.189 0.264,-2.236 0.089,-3.725 -0.048,-4.647 -0.031,-0.32 -0.115,-0.502 -0.355,-0.529 -0.448,-0.055 -1.462,-0.035 -4.149,-0.35 -0.758,-0.091 -1.045,-0.019 -1.077,0.254 -0.028,0.245 0.167,0.373 0.579,0.42 0.31,0.035 1.358,0.334 2.167,1.162 0.593,0.594 1.509,1.715 1.246,3.954 -0.3,2.546 -1.963,3.923 -4.029,3.679 -1.584,-0.187 -2.696,-1.121 -4.529,-4.234 l -0.61,-1.047 c -2.642,-4.537 -4.845,-6.297 -8.115,-6.682 -1.998,-0.236 -4.463,0.243 -6.374,2.532 -1.303,1.591 -1.841,3.484 -2.056,5.308 C -0.539,-3.137 -0.479,-1.559 0,0" /></g><g
           transform="translate(494.3418,278.1865)"
           id="g116"><path
             id="path118"
             style="fill:#393536;fill-opacity:1;fill-rule:nonzero;stroke:none"
             d="M 0,0 0.033,5.168 C 0.029,7.182 -0.115,8.021 -0.86,8.566 -1.368,8.932 -1.778,9.117 -2.054,9.195 -2.329,9.275 -2.463,9.383 -2.456,9.59 -2.449,9.832 -2.273,9.9 -1.893,9.887 -1.338,9.867 1.795,9.104 2.07,9.023 2.518,8.904 2.722,8.795 2.715,8.586 2.705,8.309 2.347,7.973 2.249,7.109 2.111,6.107 1.999,4.793 1.96,3.648 L 1.503,-10.08 c -0.037,-1.108 0.042,-1.875 0.095,-2.397 0.086,-0.521 0.146,-0.8 0.141,-0.941 -0.008,-0.244 -0.218,-0.271 -0.737,-0.254 -0.729,0.026 -3.116,0.209 -4.019,0.238 -0.344,0.045 -0.549,0.123 -0.543,0.33 0.009,0.278 0.185,0.342 0.706,0.358 l 0.382,0.025 c 0.904,0.037 1.906,0.94 2.077,4.026 l 0.25,4.363 -14.213,0.471 c -3.188,0.107 -5.926,0.199 -7.423,0.076 -0.975,-0.074 -1.743,-0.256 -1.916,-1.291 -0.086,-0.481 -0.182,-1.242 -0.199,-1.762 -0.012,-0.383 -0.122,-0.553 -0.294,-0.547 -0.244,0.008 -0.339,0.291 -0.327,0.672 0.078,2.291 0.253,4.471 0.286,5.438 0.027,0.798 -0.004,2.986 0.042,4.373 0.014,0.451 0.127,0.689 0.368,0.681 0.173,-0.006 0.274,-0.146 0.26,-0.564 -0.017,-0.522 0.038,-0.942 0.097,-1.252 0.115,-0.699 0.871,-0.934 1.873,-1.07 1.45,-0.223 4.189,-0.311 7.378,-0.418 z" /></g><g
           transform="translate(498.0156,247.5088)"
           id="g120"><path
             id="path122"
             style="fill:#393536;fill-opacity:1;fill-rule:nonzero;stroke:none"
             d="M 0,0 C 0.853,-0.15 1.885,-0.893 1.646,-2.258 1.453,-3.354 0.587,-4.082 -0.541,-3.883 -1.668,-3.688 -2.452,-2.738 -2.249,-1.576 -2.01,-0.213 -0.854,0.148 0,0 m -14.415,2.736 c 5.192,-0.908 6.149,-1.078 7.254,-1.197 1.175,-0.137 1.813,0.102 2.116,0.824 0.17,0.358 0.281,0.795 0.352,1.207 0.06,0.34 0.164,0.532 0.438,0.485 0.204,-0.034 0.227,-0.321 0.129,-0.867 -0.228,-1.297 -0.707,-3.432 -0.88,-4.422 -0.149,-0.856 -0.4,-2.887 -0.627,-4.186 -0.079,-0.447 -0.194,-0.707 -0.4,-0.67 -0.273,0.047 -0.304,0.264 -0.244,0.606 0.059,0.343 0.072,0.621 0.076,1.043 -0.009,0.955 -0.542,1.328 -1.726,1.603 -1.081,0.262 -2.038,0.43 -7.229,1.338 l -6.012,1.055 c -3.314,0.58 -6.014,1.05 -7.507,1.172 -0.938,0.058 -1.596,-0.071 -1.912,-1.073 -0.153,-0.465 -0.352,-1.205 -0.442,-1.717 -0.066,-0.376 -0.2,-0.529 -0.369,-0.5 -0.24,0.043 -0.293,0.333 -0.228,0.709 0.395,2.256 0.874,4.389 1.035,5.315 0.138,0.783 0.412,2.953 0.652,4.316 0.078,0.448 0.222,0.668 0.462,0.625 0.171,-0.027 0.248,-0.183 0.177,-0.591 -0.09,-0.514 -0.094,-0.936 -0.079,-1.256 0.018,-0.707 0.562,-1.014 1.535,-1.289 1.405,-0.422 4.103,-0.895 7.417,-1.475 z" /></g><g
           transform="translate(484.6807,219.9014)"
           id="g124"><path
             id="path126"
             style="fill:#393536;fill-opacity:1;fill-rule:nonzero;stroke:none"
             d="M 0,0 1.465,4.955 C 2.023,6.889 2.115,7.734 1.553,8.463 1.164,8.955 0.823,9.246 0.581,9.4 0.338,9.551 0.238,9.693 0.303,9.891 c 0.074,0.23 0.261,0.24 0.625,0.123 C 1.454,9.844 4.251,8.24 4.493,8.088 4.889,7.854 5.054,7.689 4.99,7.49 4.902,7.227 4.467,7.004 4.134,6.203 3.723,5.277 3.25,4.045 2.895,2.959 l -4.248,-13.053 c -0.343,-1.056 -0.481,-1.812 -0.577,-2.328 -0.061,-0.527 -0.082,-0.812 -0.124,-0.943 -0.074,-0.231 -0.284,-0.201 -0.778,-0.041 -0.693,0.226 -2.934,1.064 -3.791,1.343 -0.319,0.141 -0.496,0.274 -0.432,0.469 0.086,0.266 0.274,0.278 0.778,0.147 l 0.373,-0.082 c 0.879,-0.213 2.091,0.375 3.112,3.289 l 1.451,4.119 -13.515,4.4 c -3.034,0.987 -5.638,1.836 -7.108,2.131 -0.955,0.199 -1.745,0.238 -2.2,-0.707 -0.214,-0.441 -0.518,-1.144 -0.678,-1.637 -0.118,-0.361 -0.27,-0.496 -0.435,-0.443 -0.231,0.076 -0.244,0.371 -0.126,0.731 0.708,2.177 1.483,4.222 1.784,5.144 0.246,0.758 0.824,2.867 1.253,4.188 0.139,0.429 0.312,0.628 0.544,0.55 0.165,-0.052 0.22,-0.218 0.093,-0.609 -0.162,-0.496 -0.224,-0.914 -0.257,-1.231 -0.081,-0.701 0.578,-1.138 1.504,-1.546 1.33,-0.618 3.934,-1.465 6.966,-2.452 z" /></g><g
           transform="translate(477.1504,184.9014)"
           id="g128"><path
             id="path130"
             style="fill:#393536;fill-opacity:1;fill-rule:nonzero;stroke:none"
             d="M 0,0 C 0.581,-0.311 1.178,-1.18 0.653,-2.156 0.228,-2.953 -0.606,-3.332 -1.433,-2.891 -2.288,-2.436 -2.649,-1.49 -2.174,-0.604 -1.649,0.373 -0.642,0.344 0,0 m -3.456,-6.449 c 0.611,-0.33 1.208,-1.199 0.684,-2.178 -0.425,-0.795 -1.258,-1.174 -2.115,-0.715 -0.856,0.461 -1.218,1.401 -0.743,2.287 0.524,0.979 1.532,0.95 2.174,0.606 M -9.822,12.07 c 4.646,-2.49 5.502,-2.949 6.512,-3.412 1.074,-0.496 1.693,-0.513 2.448,0.381 0.192,0.213 0.501,0.717 0.729,1.141 0.18,0.34 0.341,0.49 0.554,0.373 C 0.634,10.441 0.582,10.193 0.336,9.734 -0.532,8.113 -1.655,6.238 -2.146,5.322 -2.54,4.588 -3.48,2.611 -4.069,1.514 -4.314,1.055 -4.49,0.871 -4.704,0.986 c -0.215,0.116 -0.178,0.33 -0.014,0.637 0.181,0.336 0.247,0.535 0.383,0.936 0.289,0.908 -0.099,1.429 -1.137,2.064 -0.944,0.586 -1.799,1.045 -6.447,3.533 l -4.279,2.293 c -4.434,2.373 -6.773,2.487 -8.799,1.645 -1.868,-0.772 -2.743,-2.11 -3.301,-3.149 -0.72,-1.347 -1.177,-3.228 -0.608,-5.105 0.78,-2.582 3.483,-4.149 6.631,-5.834 l 3.822,-2.047 c 4.646,-2.49 5.503,-2.949 6.513,-3.412 1.072,-0.494 1.693,-0.514 2.447,0.383 0.192,0.213 0.501,0.715 0.681,1.05 0.18,0.336 0.34,0.487 0.553,0.374 0.214,-0.116 0.16,-0.364 -0.068,-0.788 -0.836,-1.56 -1.959,-3.437 -1.975,-3.466 -0.197,-0.368 -1.137,-2.34 -1.775,-3.538 -0.23,-0.427 -0.405,-0.609 -0.621,-0.494 -0.212,0.116 -0.176,0.33 0.021,0.7 0.181,0.336 0.247,0.535 0.382,0.933 0.29,0.906 -0.098,1.432 -1.136,2.067 -0.946,0.582 -1.801,1.041 -6.448,3.533 l -3.27,1.748 c -3.394,1.822 -6.822,4.088 -7.647,7.838 -0.701,3.166 0.141,5.549 1.205,7.535 0.868,1.621 2.532,4.508 5.746,5.658 2.241,0.807 5.127,0.756 9.559,-1.619 z" /></g><g
           transform="translate(435.5557,174.2139)"
           id="g132"><path
             id="path134"
             style="fill:#393536;fill-opacity:1;fill-rule:nonzero;stroke:none"
             d="M 0,0 C 0.531,0.289 0.733,0.266 1.336,-0.199 2.847,-1.363 4.411,-2.742 4.829,-3.107 5.22,-3.453 5.458,-3.768 5.288,-3.988 5.099,-4.236 4.83,-4.072 4.609,-3.902 4.254,-3.629 3.592,-3.295 3.019,-3.07 0.521,-2.107 -1.47,-3.158 -2.78,-4.859 c -1.907,-2.473 -1.162,-4.973 0.293,-6.092 1.346,-1.037 2.927,-1.6 6.47,-0.697 l 1.961,0.5 c 4.691,1.201 7.416,0.765 9.642,-0.948 3.02,-2.33 3.242,-6.529 0.301,-10.349 -1.376,-1.78 -2.54,-2.723 -3.283,-3.287 -0.245,-0.207 -0.433,-0.28 -0.625,-0.133 -0.358,0.273 -1.068,1 -3.21,2.65 -0.605,0.465 -0.761,0.715 -0.592,0.938 0.148,0.191 0.377,0.144 0.706,-0.108 0.247,-0.191 1.203,-0.709 2.362,-0.685 0.84,0.013 2.277,0.172 3.653,1.959 1.566,2.033 1.337,4.175 -0.309,5.449 -1.264,0.973 -2.712,1.078 -6.199,0.137 l -1.169,-0.327 c -5.059,-1.398 -7.866,-1.117 -10.474,0.893 -1.592,1.229 -3.021,3.291 -2.789,6.264 0.178,2.05 1.118,3.779 2.238,5.234 C -2.575,-1.865 -1.431,-0.779 0,0" /></g><g
           transform="translate(434.8184,127.5322)"
           id="g136"><path
             id="path138"
             style="fill:#393536;fill-opacity:1;fill-rule:nonzero;stroke:none"
             d="m 0,0 c 0.45,-0.484 0.733,-1.496 -0.078,-2.256 -0.659,-0.613 -1.57,-0.703 -2.209,-0.017 -0.663,0.709 -0.699,1.716 0.035,2.402 C -1.44,0.883 -0.496,0.531 0,0 m -5.351,-4.988 c 0.473,-0.51 0.757,-1.526 -0.055,-2.28 -0.659,-0.615 -1.571,-0.707 -2.233,0.006 -0.662,0.707 -0.701,1.717 0.036,2.403 0.81,0.754 1.755,0.402 2.252,-0.129 M -5.399,14.59 C -1.805,10.736 -1.143,10.027 -0.336,9.26 0.519,8.445 1.1,8.229 2.102,8.83 2.352,8.971 2.808,9.346 3.162,9.678 3.441,9.938 3.641,10.029 3.806,9.852 3.971,9.672 3.841,9.457 3.46,9.109 2.116,7.857 0.447,6.443 -0.312,5.734 -0.922,5.168 -2.45,3.6 -3.362,2.742 -3.742,2.389 -3.967,2.273 -4.134,2.451 c -0.165,0.176 -0.059,0.371 0.194,0.606 0.28,0.261 0.407,0.427 0.666,0.761 0.565,0.766 0.367,1.387 -0.411,2.323 C -4.39,7 -5.053,7.711 -8.646,11.564 l -3.309,3.551 c -3.429,3.676 -5.607,4.541 -7.794,4.395 -2.018,-0.125 -3.277,-1.112 -4.14,-1.914 -1.117,-1.041 -2.155,-2.672 -2.224,-4.631 -0.094,-2.697 1.958,-5.051 4.392,-7.662 l 2.956,-3.172 c 3.593,-3.854 4.255,-4.567 5.063,-5.328 0.853,-0.815 1.435,-1.033 2.437,-0.432 0.25,0.139 0.706,0.516 0.984,0.777 0.279,0.258 0.478,0.352 0.645,0.172 0.165,-0.177 0.035,-0.392 -0.321,-0.716 -1.293,-1.208 -2.962,-2.62 -2.987,-2.643 -0.304,-0.285 -1.832,-1.85 -2.821,-2.779 -0.355,-0.33 -0.579,-0.446 -0.746,-0.268 -0.165,0.176 -0.059,0.369 0.244,0.654 0.28,0.26 0.408,0.428 0.664,0.76 0.568,0.766 0.37,1.387 -0.408,2.322 -0.705,0.858 -1.368,1.569 -4.961,5.424 l -2.53,2.711 c -2.625,2.819 -5.135,6.072 -4.706,9.883 0.358,3.227 1.924,5.205 3.573,6.742 1.344,1.256 3.851,3.447 7.262,3.5 2.38,0.041 5.094,-0.937 8.522,-4.617 z" /></g><g
           transform="translate(248.9453,87.8506)"
           id="g140"><path
             id="path142"
             style="fill:#393536;fill-opacity:1;fill-rule:nonzero;stroke:none"
             d="M 0,0 C 0.342,1.75 0.612,3.145 0.829,4.246 0.979,5.023 1.056,5.412 0.568,5.508 -0.047,5.627 -2.724,4.838 -3.495,4.684 -3.669,4.652 -3.844,4.617 -3.976,4.645 -4.071,4.662 -4.202,4.854 -4.163,5.049 -4.127,5.246 -3.932,5.375 -3.752,5.443 -3.609,5.48 3.411,8.35 4.71,8.975 5.04,9.111 5.377,9.283 5.637,9.23 5.928,9.176 5.954,8.799 5.891,8.473 5.842,8.217 5.02,5.045 4.054,0.084 L 2.886,-5.912 c -0.609,-3.115 -1.144,-5.871 -1.293,-7.32 -0.105,-1.057 -0.037,-1.577 0.956,-2.002 0.466,-0.196 1.841,-0.563 2.101,-0.614 0.13,-0.023 0.272,-0.154 0.228,-0.381 -0.044,-0.226 -0.219,-0.261 -0.575,-0.191 -2.464,0.481 -4.521,0.981 -5.395,1.152 -0.746,0.145 -3.487,0.577 -5.562,0.985 -0.358,0.068 -0.539,0.172 -0.493,0.4 0.043,0.225 0.19,0.297 0.321,0.272 0.356,-0.069 2.03,-0.293 2.638,-0.28 1.082,0.028 1.332,0.448 1.632,1.467 0.407,1.401 1.009,4.143 1.583,7.262 z" /></g><g
           transform="translate(280.6797,85.3779)"
           id="g144"><path
             id="path146"
             style="fill:#393536;fill-opacity:1;fill-rule:nonzero;stroke:none"
             d="m 0,0 c -0.589,-9.229 -9.033,-14.518 -13.244,-16.168 -0.17,-0.088 -0.337,-0.109 -0.602,-0.094 -0.131,0.008 -0.286,0.182 -0.275,0.346 0.015,0.232 0.259,0.414 0.431,0.535 3.562,1.86 9.047,6.938 9.543,14.717 0.373,5.836 -1.936,8.562 -4.475,8.725 -2.374,0.152 -4.089,-1.854 -4.269,-4.659 -0.322,-5.045 2.867,-6.435 3.987,-6.509 1.154,-0.075 1.826,0.084 2.267,0.253 0.376,0.174 0.551,0.331 0.683,0.321 0.132,-0.008 0.255,-0.149 0.245,-0.313 -0.005,-0.103 -0.117,-0.291 -0.187,-0.351 -1.022,-0.963 -2.767,-1.35 -4.45,-1.242 -4.746,0.302 -6.495,4.019 -6.317,6.791 0.283,4.449 3.85,7.464 8.927,7.142 C -2.364,9.15 0.317,5.01 0,0" /></g><g
           transform="translate(302.7344,86.4307)"
           id="g148"><path
             id="path150"
             style="fill:#393536;fill-opacity:1;fill-rule:nonzero;stroke:none"
             d="m 0,0 c 0.587,-9.229 -7.119,-15.547 -11.085,-17.717 -0.158,-0.111 -0.321,-0.154 -0.584,-0.17 -0.133,-0.008 -0.308,0.145 -0.318,0.311 -0.016,0.23 0.204,0.443 0.36,0.586 3.296,2.293 8.093,8.025 7.599,15.808 -0.372,5.836 -3.009,8.248 -5.548,8.086 -2.372,-0.152 -3.82,-2.361 -3.643,-5.164 0.323,-5.043 3.66,-6.023 4.781,-5.953 1.155,0.074 1.801,0.318 2.217,0.539 0.35,0.221 0.505,0.399 0.637,0.406 0.131,0.008 0.272,-0.115 0.282,-0.279 0.006,-0.099 -0.079,-0.303 -0.141,-0.375 -0.893,-1.084 -2.574,-1.685 -4.255,-1.791 -4.747,-0.303 -6.953,3.164 -7.129,5.932 -0.284,4.451 2.873,7.892 7.949,8.217 C -3.506,8.781 -0.319,5.01 0,0" /></g><g
           transform="translate(311.4932,71.1084)"
           id="g152"><path
             id="path154"
             style="fill:#393536;fill-opacity:1;fill-rule:nonzero;stroke:none"
             d="m 0,0 c -0.228,-0.047 -0.492,0.104 -0.543,0.365 -0.051,0.258 0.217,0.614 0.484,0.967 3.761,4.873 9.226,11.188 7.893,18.027 -0.998,5.123 -4.021,5.61 -5.643,5.295 -1.392,-0.271 -2.413,-0.738 -3.209,-1.838 -0.63,-0.894 -0.919,-2.535 -0.753,-3.38 0.063,-0.323 0.023,-0.635 -0.302,-0.698 -0.161,-0.031 -0.304,0.176 -0.411,0.561 -0.09,0.287 -0.778,2.947 -0.96,3.887 -0.056,0.293 -0.049,0.427 0.263,0.724 1.137,0.893 2.774,1.819 5.626,2.375 5.706,1.113 8.744,-1.527 9.485,-5.32 C 13.155,14.678 7.254,7.842 3.723,3.688 3.585,3.525 3.669,3.439 3.831,3.473 L 6.036,3.9 c 0.551,0.11 4.37,0.885 5.538,1.284 2.186,0.693 3.041,2.003 3.133,3.603 0.022,0.408 0.093,0.559 0.288,0.594 0.229,0.047 0.316,-0.24 0.379,-0.565 C 15.477,8.299 15.447,5.164 15.338,3.998 15.248,3.07 14.75,2.875 12.708,2.479 Z" /></g><g
           transform="translate(283.4648,59.1865)"
           id="g156"><path
             id="path158"
             style="fill:#981121;fill-opacity:1;fill-rule:nonzero;stroke:none"
             d="m 0,0 c -123.865,0 -224.277,100.412 -224.277,224.277 0,123.866 100.412,224.276 224.277,224.276 123.864,0 224.278,-100.41 224.278,-224.276 C 224.278,100.412 123.864,0 0,0 m 0,458.307 c -129.25,0 -234.028,-104.778 -234.028,-234.03 C -234.028,95.027 -129.25,-9.75 0,-9.75 c 129.25,0 234.029,104.777 234.029,234.027 0,129.252 -104.779,234.03 -234.029,234.03" /></g><g
           transform="translate(283.4648,117.6943)"
           id="g160"><path
             id="path162"
             style="fill:#981121;fill-opacity:1;fill-rule:nonzero;stroke:none"
             d="m 0,0 c -91.552,0 -165.77,74.217 -165.77,165.77 0,91.554 74.218,165.771 165.77,165.771 91.553,0 165.77,-74.217 165.77,-165.771 C 165.77,74.217 91.553,0 0,0 m 0,341.293 c -96.938,0 -175.521,-78.586 -175.521,-175.523 0,-96.94 78.583,-175.522 175.521,-175.522 96.938,0 175.521,78.582 175.521,175.522 0,96.937 -78.583,175.523 -175.521,175.523" /></g><g
           transform="translate(439.4844,283.4658)"
           id="g164"><path
             id="path166"
             style="fill:#981121;fill-opacity:1;fill-rule:nonzero;stroke:none"
             d="m 0,0 c 0,-86.17 -69.854,-156.02 -156.02,-156.02 -86.167,0 -156.019,69.85 -156.019,156.02 0,86.164 69.852,156.018 156.019,156.018 C -69.854,156.018 0,86.164 0,0" /></g><g
           transform="translate(376.3252,112.915)"
           id="g168"><path
             id="path170"
             style="fill:#981121;fill-opacity:1;fill-rule:nonzero;stroke:none"
             d="m 0,0 c 0,4.621 3.213,11.051 11.048,11.051 6.228,0 11.049,-4.018 11.049,-10.447 0,-6.432 -4.418,-11.653 -11.25,-11.653 C 3.213,-11.049 0,-5.023 0,0" /></g><g
           transform="translate(168.5078,112.915)"
           id="g172"><path
             id="path174"
             style="fill:#981121;fill-opacity:1;fill-rule:nonzero;stroke:none"
             d="m 0,0 c 0,4.621 3.212,11.051 11.05,11.051 6.226,0 11.048,-4.018 11.048,-10.447 0,-6.432 -4.419,-11.653 -11.25,-11.653 C 3.212,-11.049 0,-5.023 0,0" /></g><g
           transform="translate(274.9687,305.417)"
           id="g176"><path
             id="path178"
             style="fill:#ffffff;fill-opacity:1;fill-rule:nonzero;stroke:none"
             d="m 0,0 h -4.959 c -1.662,0 -3.01,1.348 -3.01,3.008 v 59.84 c 0,1.66 1.348,3.009 3.01,3.009 H 0 c 1.661,0 3.008,-1.349 3.008,-3.009 V 3.008 C 3.008,1.348 1.661,0 0,0" /></g><g
           transform="translate(284.7061,338.3447)"
           id="g180"><path
             id="path182"
             style="fill:#ffffff;fill-opacity:1;fill-rule:nonzero;stroke:none"
             d="m 0,0 h -2.479 c -0.833,0 -1.505,0.674 -1.505,1.504 v 62.848 c 0,0.83 0.672,1.505 1.505,1.505 H 0 c 0.83,0 1.503,-0.675 1.503,-1.505 V 1.504 C 1.503,0.674 0.83,0 0,0" /></g><g
           transform="translate(296.9209,305.417)"
           id="g184"><path
             id="path186"
             style="fill:#ffffff;fill-opacity:1;fill-rule:nonzero;stroke:none"
             d="m 0,0 h -4.961 c -1.66,0 -3.008,1.348 -3.008,3.008 v 59.84 c 0,1.66 1.348,3.009 3.008,3.009 H 0 c 1.661,0 3.008,-1.349 3.008,-3.009 V 3.008 C 3.008,1.348 1.661,0 0,0" /></g><g
           transform="translate(345.0264,341.1455)"
           id="g188"><path
             id="path190"
             style="fill:#ffffff;fill-opacity:1;fill-rule:nonzero;stroke:none"
             d="m 0,0 v 0 l 24.782,24.781 c 0.535,0.537 0.535,1.406 0,1.94 l -1.94,1.941 c -0.537,0.535 -1.405,0.535 -1.943,0 L -3.88,3.879 c -1.071,1.072 -2.809,1.072 -3.881,0 l -31.045,-31.045 c -1.071,-1.072 -1.071,-2.809 0,-3.881 l 3.881,-3.877 c 1.071,-1.074 2.808,-1.074 3.879,0 L 0,-3.881 C 1.072,-2.809 1.072,-1.072 0,0" /></g><g
           transform="translate(305.416,291.96)"
           id="g192"><path
             id="path194"
             style="fill:#ffffff;fill-opacity:1;fill-rule:nonzero;stroke:none"
             d="m 0,0 v 4.963 c 0,1.66 1.349,3.008 3.009,3.008 h 59.839 c 1.661,0 3.01,-1.348 3.01,-3.008 V 0 c 0,-1.662 -1.349,-3.006 -3.01,-3.006 H 3.009 C 1.349,-3.006 0,-1.662 0,0" /></g><g
           transform="translate(338.3437,282.2236)"
           id="g196"><path
             id="path198"
             style="fill:#ffffff;fill-opacity:1;fill-rule:nonzero;stroke:none"
             d="m 0,0 v 2.482 c 0,0.831 0.675,1.502 1.505,1.502 h 62.848 c 0.83,0 1.504,-0.671 1.504,-1.502 V 0 c 0,-0.83 -0.674,-1.506 -1.504,-1.506 H 1.505 C 0.675,-1.506 0,-0.83 0,0" /></g><g
           transform="translate(305.416,270.0088)"
           id="g200"><path
             id="path202"
             style="fill:#ffffff;fill-opacity:1;fill-rule:nonzero;stroke:none"
             d="m 0,0 v 4.959 c 0,1.662 1.349,3.01 3.009,3.01 h 59.839 c 1.661,0 3.01,-1.348 3.01,-3.01 V 0 c 0,-1.662 -1.349,-3.01 -3.01,-3.01 H 3.009 C 1.349,-3.01 0,-1.662 0,0" /></g><g
           transform="translate(341.1465,221.9033)"
           id="g204"><path
             id="path206"
             style="fill:#ffffff;fill-opacity:1;fill-rule:nonzero;stroke:none"
             d="m 0,0 v 0 l 24.78,-24.781 c 0.536,-0.535 1.407,-0.535 1.942,0 l 1.94,1.941 c 0.534,0.533 0.534,1.401 0,1.94 L 3.88,3.881 c 1.071,1.07 1.071,2.808 0,3.877 l -31.046,31.047 c -1.071,1.072 -2.809,1.072 -3.879,0 l -3.881,-3.881 c -1.071,-1.07 -1.071,-2.809 0,-3.877 L -3.882,0 C -2.81,-1.072 -1.073,-1.072 0,0" /></g><g
           transform="translate(291.96,261.5127)"
           id="g208"><path
             id="path210"
             style="fill:#ffffff;fill-opacity:1;fill-rule:nonzero;stroke:none"
             d="m 0,0 h 4.962 c 1.66,0 3.007,-1.348 3.007,-3.008 V -62.85 c 0,-1.66 -1.347,-3.007 -3.007,-3.007 H 0 c -1.661,0 -3.007,1.347 -3.007,3.007 V -3.008 C -3.007,-1.348 -1.661,0 0,0" /></g><g
           transform="translate(282.2246,228.585)"
           id="g212"><path
             id="path214"
             style="fill:#ffffff;fill-opacity:1;fill-rule:nonzero;stroke:none"
             d="m 0,0 h 2.479 c 0.833,0 1.504,-0.674 1.504,-1.506 v -62.848 c 0,-0.83 -0.671,-1.503 -1.504,-1.503 H 0 c -0.831,0 -1.504,0.673 -1.504,1.503 V -1.506 C -1.504,-0.674 -0.831,0 0,0" /></g><g
           transform="translate(270.0088,261.5127)"
           id="g216"><path
             id="path218"
             style="fill:#ffffff;fill-opacity:1;fill-rule:nonzero;stroke:none"
             d="m 0,0 h 4.959 c 1.662,0 3.01,-1.348 3.01,-3.008 V -62.85 c 0,-1.66 -1.348,-3.007 -3.01,-3.007 H 0 c -1.661,0 -3.008,1.347 -3.008,3.007 V -3.008 C -3.008,-1.348 -1.661,0 0,0" /></g><g
           transform="translate(221.9033,225.7842)"
           id="g220"><path
             id="path222"
             style="fill:#ffffff;fill-opacity:1;fill-rule:nonzero;stroke:none"
             d="m 0,0 v 0 l -24.782,-24.781 c -0.534,-0.539 -0.534,-1.406 0,-1.94 l 1.94,-1.941 c 0.537,-0.535 1.405,-0.535 1.942,0 L 3.88,-3.881 c 1.072,-1.072 2.809,-1.072 3.881,0 l 31.045,31.047 c 1.071,1.072 1.071,2.807 0,3.877 l -3.88,3.881 c -1.072,1.072 -2.809,1.072 -3.881,0 L 0,3.879 C -1.072,2.809 -1.072,1.072 0,0" /></g><g
           transform="translate(261.5127,274.9678)"
           id="g224"><path
             id="path226"
             style="fill:#ffffff;fill-opacity:1;fill-rule:nonzero;stroke:none"
             d="m 0,0 v -4.961 c 0,-1.66 -1.347,-3.008 -3.008,-3.008 h -59.84 c -1.662,0 -3.008,1.348 -3.008,3.008 V 0 c 0,1.664 1.346,3.008 3.008,3.008 h 59.84 C -1.347,3.008 0,1.664 0,0" /></g><g
           transform="translate(228.585,284.7061)"
           id="g228"><path
             id="path230"
             style="fill:#ffffff;fill-opacity:1;fill-rule:nonzero;stroke:none"
             d="m 0,0 v -2.482 c 0,-0.831 -0.674,-1.502 -1.504,-1.502 h -62.848 c -0.831,0 -1.504,0.671 -1.504,1.502 V 0 c 0,0.83 0.673,1.504 1.504,1.504 H -1.504 C -0.674,1.504 0,0.83 0,0" /></g><g
           transform="translate(261.5127,296.9189)"
           id="g232"><path
             id="path234"
             style="fill:#ffffff;fill-opacity:1;fill-rule:nonzero;stroke:none"
             d="m 0,0 v -4.959 c 0,-1.66 -1.347,-3.01 -3.008,-3.01 h -59.84 c -1.662,0 -3.008,1.35 -3.008,3.01 V 0 c 0,1.664 1.346,3.012 3.008,3.012 h 59.84 C -1.347,3.012 0,1.664 0,0" /></g><g
           transform="translate(225.7842,345.0244)"
           id="g236"><path
             id="path238"
             style="fill:#ffffff;fill-opacity:1;fill-rule:nonzero;stroke:none"
             d="m 0,0 v 0 l -24.782,24.783 c -0.535,0.535 -1.405,0.535 -1.941,0 l -1.939,-1.941 c -0.535,-0.533 -0.535,-1.403 0,-1.94 L -3.881,-3.879 c -1.071,-1.072 -1.071,-2.808 0,-3.881 l 31.045,-31.043 c 1.071,-1.074 2.809,-1.074 3.881,0 l 3.88,3.879 c 1.071,1.07 1.071,2.809 0,3.879 L 3.88,0 C 2.808,1.072 1.071,1.072 0,0" /></g></g></g></g></svg>